# xmcd
#
# Track frame offsets:
#	150
#	7581
#	17174
#	26314
#	38924
#	48533
#	56895
#	76508
#	86341
#	104369
#	115425
#	124941
#	138326
#	151084
#	158295
#	174452
#	184276
#	196499
#	204906
#	222686
#
# Disc length: 3075 seconds
#
# Revision: 1
# Processed by: cddbd v1.5.1PL2 Copyright (c) Steve Scherf et al.
# Submitted via: audiograbber 1.83.01
#
DISCID=fd0c0114
DTITLE=Fidele Lavanttaler - Wir sind die Buam vom Lavanttal
DYEAR=1900
DGENRE=Country
TTITLE0=Grüß Euch Gott
TTITLE1=Leise rauscht die Lavant
TTITLE2=Wir sind so gern Musikanten
TTITLE3=Die Glocken von St. Paul
TTITLE4=Im Dorf ist heute Kirchtag
TTITLE5=Als Lavanttaler sind wir bekannt
TTITLE6=St. Vinzenzer Koralmsee Walzer
TTITLE7=I bin der Lenz
TTITLE8=Wenn die Schwalben heimwärts ziehn
TTITLE9=Ruck-Zuck-Polka
TTITLE10=Immer gern gehört
TTITLE11=Freizeit Marsch
TTITLE12=Du mein St. Paul
TTITLE13=Ein gutgelaunter Musikant
TTITLE14=Teure Schwalben
TTITLE15=Ich schenk dir heut Rosen
TTITLE16=Blumengeflüster
TTITLE17=Auf gehts Buam
TTITLE18=Abendstimmung
TTITLE19=Vater Unser
EXTD=
EXTT0=
EXTT1=
EXTT2=
EXTT3=
EXTT4=
EXTT5=
EXTT6=
EXTT7=
EXTT8=
EXTT9=
EXTT10=
EXTT11=
EXTT12=
EXTT13=
EXTT14=
EXTT15=
EXTT16=
EXTT17=
EXTT18=
EXTT19=
PLAYORDER=
